ISO-10303-21;
HEADER;
/* Generated by software containing ST-Developer
 * from STEP Tools, Inc. (www.steptools.com) 
 */

FILE_DESCRIPTION(
/* description */ (''),
/* implementation_level */ '2;1');

FILE_NAME(
/* name */ 'JabberStandPillar.step',
/* time_stamp */ '2026-08-17T21:41:33+02:00',
/* author */ (''),
/* organization */ (''),
/* preprocessor_version */ 'ST-DEVELOPER v20.1',
/* originating_system */ 'Autodesk Translation Framework v15.8.0.0',
/* authorisation */ '');

FILE_SCHEMA (('AUTOMOTIVE_DESIGN { 1 0 10303 214 3 1 1 }'));
ENDSEC;

DATA;
#10=MECHANICAL_DESIGN_GEOMETRIC_PRESENTATION_REPRESENTATION('',(#17),#1262);
#11=ITEM_DEFINED_TRANSFORMATION($,$,#772,#832);
#12=(
REPRESENTATION_RELATIONSHIP($,$,#1273,#1272)
REPRESENTATION_RELATIONSHIP_WITH_TRANSFORMATION(#11)
SHAPE_REPRESENTATION_RELATIONSHIP()
);
#13=CONTEXT_DEPENDENT_SHAPE_REPRESENTATION(#12,#1271);
#14=NEXT_ASSEMBLY_USAGE_OCCURRENCE('Pillar v4:1','Pillar v4:1',
'Pillar v4:1',#1275,#1276,'Pillar v4:1');
#15=SHAPE_REPRESENTATION_RELATIONSHIP('SRR','None',#1273,#16);
#16=ADVANCED_BREP_SHAPE_REPRESENTATION('',(#18),#1261);
#17=STYLED_ITEM('',(#1287),#18);
#18=MANIFOLD_SOLID_BREP('Body3',#758);
#19=CYLINDRICAL_SURFACE('',#802,2.);
#20=CYLINDRICAL_SURFACE('',#807,2.);
#21=CYLINDRICAL_SURFACE('',#812,2.);
#22=CYLINDRICAL_SURFACE('',#817,2.00000000000001);
#23=CYLINDRICAL_SURFACE('',#823,2.);
#24=CYLINDRICAL_SURFACE('',#826,2.);
#25=FACE_BOUND('',#94,.T.);
#26=FACE_BOUND('',#95,.T.);
#27=CIRCLE('',#781,2.);
#28=CIRCLE('',#782,2.);
#29=CIRCLE('',#803,2.);
#30=CIRCLE('',#804,2.);
#31=CIRCLE('',#805,2.);
#32=CIRCLE('',#808,2.);
#33=CIRCLE('',#809,2.);
#34=CIRCLE('',#810,2.);
#35=CIRCLE('',#813,2.);
#36=CIRCLE('',#814,2.);
#37=CIRCLE('',#815,2.);
#38=CIRCLE('',#818,2.00000000000001);
#39=CIRCLE('',#819,2.00000000000001);
#40=CIRCLE('',#820,2.00000000000001);
#41=CIRCLE('',#824,2.);
#42=CIRCLE('',#827,2.);
#43=FACE_OUTER_BOUND('',#86,.T.);
#44=FACE_OUTER_BOUND('',#87,.T.);
#45=FACE_OUTER_BOUND('',#88,.T.);
#46=FACE_OUTER_BOUND('',#89,.T.);
#47=FACE_OUTER_BOUND('',#90,.T.);
#48=FACE_OUTER_BOUND('',#91,.T.);
#49=FACE_OUTER_BOUND('',#92,.T.);
#50=FACE_OUTER_BOUND('',#93,.T.);
#51=FACE_OUTER_BOUND('',#96,.T.);
#52=FACE_OUTER_BOUND('',#97,.T.);
#53=FACE_OUTER_BOUND('',#98,.T.);
#54=FACE_OUTER_BOUND('',#99,.T.);
#55=FACE_OUTER_BOUND('',#100,.T.);
#56=FACE_OUTER_BOUND('',#101,.T.);
#57=FACE_OUTER_BOUND('',#102,.T.);
#58=FACE_OUTER_BOUND('',#103,.T.);
#59=FACE_OUTER_BOUND('',#104,.T.);
#60=FACE_OUTER_BOUND('',#105,.T.);
#61=FACE_OUTER_BOUND('',#106,.T.);
#62=FACE_OUTER_BOUND('',#107,.T.);
#63=FACE_OUTER_BOUND('',#108,.T.);
#64=FACE_OUTER_BOUND('',#109,.T.);
#65=FACE_OUTER_BOUND('',#110,.T.);
#66=FACE_OUTER_BOUND('',#111,.T.);
#67=FACE_OUTER_BOUND('',#112,.T.);
#68=FACE_OUTER_BOUND('',#113,.T.);
#69=FACE_OUTER_BOUND('',#114,.T.);
#70=FACE_OUTER_BOUND('',#115,.T.);
#71=FACE_OUTER_BOUND('',#116,.T.);
#72=FACE_OUTER_BOUND('',#117,.T.);
#73=FACE_OUTER_BOUND('',#118,.T.);
#74=FACE_OUTER_BOUND('',#119,.T.);
#75=FACE_OUTER_BOUND('',#120,.T.);
#76=FACE_OUTER_BOUND('',#121,.T.);
#77=FACE_OUTER_BOUND('',#122,.T.);
#78=FACE_OUTER_BOUND('',#123,.T.);
#79=FACE_OUTER_BOUND('',#124,.T.);
#80=FACE_OUTER_BOUND('',#125,.T.);
#81=FACE_OUTER_BOUND('',#126,.T.);
#82=FACE_OUTER_BOUND('',#127,.T.);
#83=FACE_OUTER_BOUND('',#128,.T.);
#84=FACE_OUTER_BOUND('',#129,.T.);
#85=FACE_OUTER_BOUND('',#130,.T.);
#86=EDGE_LOOP('',(#472,#473,#474,#475));
#87=EDGE_LOOP('',(#476,#477,#478,#479,#480,#481,#482,#483,#484,#485,#486,
#487,#488));
#88=EDGE_LOOP('',(#489,#490,#491,#492));
#89=EDGE_LOOP('',(#493,#494,#495,#496));
#90=EDGE_LOOP('',(#497,#498,#499,#500));
#91=EDGE_LOOP('',(#501,#502,#503,#504,#505,#506,#507,#508,#509,#510,#511,
#512,#513));
#92=EDGE_LOOP('',(#514,#515,#516,#517));
#93=EDGE_LOOP('',(#518,#519,#520,#521,#522,#523,#524,#525));
#94=EDGE_LOOP('',(#526));
#95=EDGE_LOOP('',(#527));
#96=EDGE_LOOP('',(#528,#529,#530,#531));
#97=EDGE_LOOP('',(#532,#533,#534,#535));
#98=EDGE_LOOP('',(#536,#537,#538,#539));
#99=EDGE_LOOP('',(#540,#541,#542,#543));
#100=EDGE_LOOP('',(#544,#545,#546,#547,#548,#549,#550,#551));
#101=EDGE_LOOP('',(#552,#553,#554,#555));
#102=EDGE_LOOP('',(#556,#557,#558,#559));
#103=EDGE_LOOP('',(#560,#561,#562,#563));
#104=EDGE_LOOP('',(#564,#565,#566,#567));
#105=EDGE_LOOP('',(#568,#569,#570,#571));
#106=EDGE_LOOP('',(#572,#573,#574,#575));
#107=EDGE_LOOP('',(#576,#577,#578,#579));
#108=EDGE_LOOP('',(#580,#581,#582,#583));
#109=EDGE_LOOP('',(#584,#585,#586,#587));
#110=EDGE_LOOP('',(#588,#589,#590,#591));
#111=EDGE_LOOP('',(#592,#593,#594,#595));
#112=EDGE_LOOP('',(#596,#597,#598,#599));
#113=EDGE_LOOP('',(#600,#601,#602,#603));
#114=EDGE_LOOP('',(#604,#605,#606,#607));
#115=EDGE_LOOP('',(#608,#609,#610,#611,#612));
#116=EDGE_LOOP('',(#613));
#117=EDGE_LOOP('',(#614,#615,#616,#617,#618));
#118=EDGE_LOOP('',(#619));
#119=EDGE_LOOP('',(#620,#621,#622,#623,#624));
#120=EDGE_LOOP('',(#625));
#121=EDGE_LOOP('',(#626,#627,#628,#629,#630));
#122=EDGE_LOOP('',(#631));
#123=EDGE_LOOP('',(#632,#633,#634,#635,#636,#637,#638,#639,#640,#641,#642,
#643,#644,#645,#646,#647));
#124=EDGE_LOOP('',(#648,#649,#650,#651));
#125=EDGE_LOOP('',(#652));
#126=EDGE_LOOP('',(#653,#654,#655,#656));
#127=EDGE_LOOP('',(#657));
#128=EDGE_LOOP('',(#658,#659,#660,#661,#662,#663,#664,#665));
#129=EDGE_LOOP('',(#666,#667,#668,#669,#670,#671,#672,#673));
#130=EDGE_LOOP('',(#674,#675,#676,#677));
#131=LINE('',#1049,#218);
#132=LINE('',#1051,#219);
#133=LINE('',#1053,#220);
#134=LINE('',#1054,#221);
#135=LINE('',#1057,#222);
#136=LINE('',#1059,#223);
#137=LINE('',#1061,#224);
#138=LINE('',#1063,#225);
#139=LINE('',#1065,#226);
#140=LINE('',#1067,#227);
#141=LINE('',#1069,#228);
#142=LINE('',#1071,#229);
#143=LINE('',#1073,#230);
#144=LINE('',#1075,#231);
#145=LINE('',#1077,#232);
#146=LINE('',#1078,#233);
#147=LINE('',#1081,#234);
#148=LINE('',#1082,#235);
#149=LINE('',#1086,#236);
#150=LINE('',#1088,#237);
#151=LINE('',#1090,#238);
#152=LINE('',#1091,#239);
#153=LINE('',#1094,#240);
#154=LINE('',#1096,#241);
#155=LINE('',#1097,#242);
#156=LINE('',#1100,#243);
#157=LINE('',#1102,#244);
#158=LINE('',#1104,#245);
#159=LINE('',#1106,#246);
#160=LINE('',#1108,#247);
#161=LINE('',#1110,#248);
#162=LINE('',#1112,#249);
#163=LINE('',#1114,#250);
#164=LINE('',#1116,#251);
#165=LINE('',#1118,#252);
#166=LINE('',#1119,#253);
#167=LINE('',#1122,#254);
#168=LINE('',#1123,#255);
#169=LINE('',#1126,#256);
#170=LINE('',#1127,#257);
#171=LINE('',#1129,#258);
#172=LINE('',#1131,#259);
#173=LINE('',#1132,#260);
#174=LINE('',#1140,#261);
#175=LINE('',#1141,#262);
#176=LINE('',#1142,#263);
#177=LINE('',#1145,#264);
#178=LINE('',#1146,#265);
#179=LINE('',#1149,#266);
#180=LINE('',#1151,#267);
#181=LINE('',#1152,#268);
#182=LINE('',#1155,#269);
#183=LINE('',#1156,#270);
#184=LINE('',#1159,#271);
#185=LINE('',#1161,#272);
#186=LINE('',#1162,#273);
#187=LINE('',#1163,#274);
#188=LINE('',#1167,#275);
#189=LINE('',#1168,#276);
#190=LINE('',#1169,#277);
#191=LINE('',#1172,#278);
#192=LINE('',#1173,#279);
#193=LINE('',#1175,#280);
#194=LINE('',#1178,#281);
#195=LINE('',#1180,#282);
#196=LINE('',#1181,#283);
#197=LINE('',#1184,#284);
#198=LINE('',#1185,#285);
#199=LINE('',#1187,#286);
#200=LINE('',#1189,#287);
#201=LINE('',#1191,#288);
#202=LINE('',#1193,#289);
#203=LINE('',#1195,#290);
#204=LINE('',#1197,#291);
#205=LINE('',#1198,#292);
#206=LINE('',#1200,#293);
#207=LINE('',#1202,#294);
#208=LINE('',#1204,#295);
#209=LINE('',#1211,#296);
#210=LINE('',#1220,#297);
#211=LINE('',#1228,#298);
#212=LINE('',#1236,#299);
#213=LINE('',#1240,#300);
#214=LINE('',#1241,#301);
#215=LINE('',#1242,#302);
#216=LINE('',#1245,#303);
#217=LINE('',#1250,#304);
#218=VECTOR('',#839,10.);
#219=VECTOR('',#840,10.);
#220=VECTOR('',#841,10.);
#221=VECTOR('',#842,10.);
#222=VECTOR('',#845,10.);
#223=VECTOR('',#846,10.);
#224=VECTOR('',#847,10.);
#225=VECTOR('',#848,10.);
#226=VECTOR('',#849,10.);
#227=VECTOR('',#850,10.);
#228=VECTOR('',#851,10.);
#229=VECTOR('',#852,10.);
#230=VECTOR('',#853,10.);
#231=VECTOR('',#854,10.);
#232=VECTOR('',#855,10.);
#233=VECTOR('',#856,10.);
#234=VECTOR('',#859,10.);
#235=VECTOR('',#860,10.);
#236=VECTOR('',#863,10.);
#237=VECTOR('',#864,10.);
#238=VECTOR('',#865,10.);
#239=VECTOR('',#866,10.);
#240=VECTOR('',#869,10.);
#241=VECTOR('',#870,10.);
#242=VECTOR('',#871,10.);
#243=VECTOR('',#874,10.);
#244=VECTOR('',#875,10.);
#245=VECTOR('',#876,10.);
#246=VECTOR('',#877,10.);
#247=VECTOR('',#878,10.);
#248=VECTOR('',#879,10.);
#249=VECTOR('',#880,10.);
#250=VECTOR('',#881,10.);
#251=VECTOR('',#882,10.);
#252=VECTOR('',#883,10.);
#253=VECTOR('',#884,10.);
#254=VECTOR('',#887,10.);
#255=VECTOR('',#888,10.);
#256=VECTOR('',#891,10.);
#257=VECTOR('',#892,10.);
#258=VECTOR('',#893,10.);
#259=VECTOR('',#894,10.);
#260=VECTOR('',#895,10.);
#261=VECTOR('',#902,10.);
#262=VECTOR('',#903,10.);
#263=VECTOR('',#904,10.);
#264=VECTOR('',#907,10.);
#265=VECTOR('',#908,10.);
#266=VECTOR('',#911,10.);
#267=VECTOR('',#912,10.);
#268=VECTOR('',#913,10.);
#269=VECTOR('',#916,10.);
#270=VECTOR('',#917,10.);
#271=VECTOR('',#920,10.);
#272=VECTOR('',#921,10.);
#273=VECTOR('',#922,10.);
#274=VECTOR('',#923,10.);
#275=VECTOR('',#926,10.);
#276=VECTOR('',#927,10.);
#277=VECTOR('',#928,10.);
#278=VECTOR('',#931,10.);
#279=VECTOR('',#932,10.);
#280=VECTOR('',#935,10.);
#281=VECTOR('',#938,10.);
#282=VECTOR('',#939,10.);
#283=VECTOR('',#940,10.);
#284=VECTOR('',#943,10.);
#285=VECTOR('',#944,10.);
#286=VECTOR('',#947,10.);
#287=VECTOR('',#950,10.);
#288=VECTOR('',#953,10.);
#289=VECTOR('',#956,10.);
#290=VECTOR('',#959,10.);
#291=VECTOR('',#962,10.);
#292=VECTOR('',#963,10.);
#293=VECTOR('',#966,10.);
#294=VECTOR('',#969,10.);
#295=VECTOR('',#972,10.);
#296=VECTOR('',#979,2.);
#297=VECTOR('',#990,2.);
#298=VECTOR('',#1001,2.);
#299=VECTOR('',#1012,2.00000000000001);
#300=VECTOR('',#1019,10.);
#301=VECTOR('',#1020,10.);
#302=VECTOR('',#1021,10.);
#303=VECTOR('',#1024,2.);
#304=VECTOR('',#1031,2.);
#305=VERTEX_POINT('',#1047);
#306=VERTEX_POINT('',#1048);
#307=VERTEX_POINT('',#1050);
#308=VERTEX_POINT('',#1052);
#309=VERTEX_POINT('',#1056);
#310=VERTEX_POINT('',#1058);
#311=VERTEX_POINT('',#1060);
#312=VERTEX_POINT('',#1062);
#313=VERTEX_POINT('',#1064);
#314=VERTEX_POINT('',#1066);
#315=VERTEX_POINT('',#1068);
#316=VERTEX_POINT('',#1070);
#317=VERTEX_POINT('',#1072);
#318=VERTEX_POINT('',#1074);
#319=VERTEX_POINT('',#1076);
#320=VERTEX_POINT('',#1080);
#321=VERTEX_POINT('',#1084);
#322=VERTEX_POINT('',#1085);
#323=VERTEX_POINT('',#1087);
#324=VERTEX_POINT('',#1089);
#325=VERTEX_POINT('',#1093);
#326=VERTEX_POINT('',#1095);
#327=VERTEX_POINT('',#1099);
#328=VERTEX_POINT('',#1101);
#329=VERTEX_POINT('',#1103);
#330=VERTEX_POINT('',#1105);
#331=VERTEX_POINT('',#1107);
#332=VERTEX_POINT('',#1109);
#333=VERTEX_POINT('',#1111);
#334=VERTEX_POINT('',#1113);
#335=VERTEX_POINT('',#1115);
#336=VERTEX_POINT('',#1117);
#337=VERTEX_POINT('',#1121);
#338=VERTEX_POINT('',#1125);
#339=VERTEX_POINT('',#1128);
#340=VERTEX_POINT('',#1130);
#341=VERTEX_POINT('',#1133);
#342=VERTEX_POINT('',#1135);
#343=VERTEX_POINT('',#1138);
#344=VERTEX_POINT('',#1139);
#345=VERTEX_POINT('',#1144);
#346=VERTEX_POINT('',#1148);
#347=VERTEX_POINT('',#1150);
#348=VERTEX_POINT('',#1154);
#349=VERTEX_POINT('',#1158);
#350=VERTEX_POINT('',#1160);
#351=VERTEX_POINT('',#1165);
#352=VERTEX_POINT('',#1166);
#353=VERTEX_POINT('',#1171);
#354=VERTEX_POINT('',#1177);
#355=VERTEX_POINT('',#1179);
#356=VERTEX_POINT('',#1183);
#357=VERTEX_POINT('',#1206);
#358=VERTEX_POINT('',#1207);
#359=VERTEX_POINT('',#1210);
#360=VERTEX_POINT('',#1215);
#361=VERTEX_POINT('',#1216);
#362=VERTEX_POINT('',#1219);
#363=VERTEX_POINT('',#1224);
#364=VERTEX_POINT('',#1227);
#365=VERTEX_POINT('',#1232);
#366=VERTEX_POINT('',#1235);
#367=VERTEX_POINT('',#1244);
#368=VERTEX_POINT('',#1249);
#369=EDGE_CURVE('',#305,#306,#131,.T.);
#370=EDGE_CURVE('',#306,#307,#132,.T.);
#371=EDGE_CURVE('',#307,#308,#133,.T.);
#372=EDGE_CURVE('',#308,#305,#134,.T.);
#373=EDGE_CURVE('',#309,#306,#135,.T.);
#374=EDGE_CURVE('',#310,#309,#136,.T.);
#375=EDGE_CURVE('',#310,#311,#137,.T.);
#376=EDGE_CURVE('',#312,#311,#138,.T.);
#377=EDGE_CURVE('',#313,#312,#139,.T.);
#378=EDGE_CURVE('',#314,#313,#140,.T.);
#379=EDGE_CURVE('',#314,#315,#141,.T.);
#380=EDGE_CURVE('',#315,#316,#142,.T.);
#381=EDGE_CURVE('',#316,#317,#143,.T.);
#382=EDGE_CURVE('',#318,#317,#144,.T.);
#383=EDGE_CURVE('',#319,#318,#145,.T.);
#384=EDGE_CURVE('',#319,#307,#146,.T.);
#385=EDGE_CURVE('',#305,#320,#147,.T.);
#386=EDGE_CURVE('',#320,#309,#148,.T.);
#387=EDGE_CURVE('',#321,#322,#149,.T.);
#388=EDGE_CURVE('',#322,#323,#150,.T.);
#389=EDGE_CURVE('',#323,#324,#151,.T.);
#390=EDGE_CURVE('',#324,#321,#152,.T.);
#391=EDGE_CURVE('',#321,#325,#153,.T.);
#392=EDGE_CURVE('',#325,#326,#154,.T.);
#393=EDGE_CURVE('',#326,#322,#155,.T.);
#394=EDGE_CURVE('',#327,#324,#156,.T.);
#395=EDGE_CURVE('',#328,#327,#157,.T.);
#396=EDGE_CURVE('',#329,#328,#158,.T.);
#397=EDGE_CURVE('',#330,#329,#159,.T.);
#398=EDGE_CURVE('',#330,#331,#160,.T.);
#399=EDGE_CURVE('',#331,#332,#161,.T.);
#400=EDGE_CURVE('',#333,#332,#162,.T.);
#401=EDGE_CURVE('',#334,#333,#163,.T.);
#402=EDGE_CURVE('',#335,#334,#164,.T.);
#403=EDGE_CURVE('',#335,#336,#165,.T.);
#404=EDGE_CURVE('',#325,#336,#166,.T.);
#405=EDGE_CURVE('',#320,#337,#167,.T.);
#406=EDGE_CURVE('',#337,#310,#168,.T.);
#407=EDGE_CURVE('',#338,#337,#169,.T.);
#408=EDGE_CURVE('',#336,#338,#170,.T.);
#409=EDGE_CURVE('',#339,#335,#171,.T.);
#410=EDGE_CURVE('',#340,#339,#172,.T.);
#411=EDGE_CURVE('',#311,#340,#173,.T.);
#412=EDGE_CURVE('',#341,#341,#27,.T.);
#413=EDGE_CURVE('',#342,#342,#28,.T.);
#414=EDGE_CURVE('',#343,#344,#174,.T.);
#415=EDGE_CURVE('',#344,#319,#175,.F.);
#416=EDGE_CURVE('',#318,#343,#176,.T.);
#417=EDGE_CURVE('',#317,#345,#177,.T.);
#418=EDGE_CURVE('',#345,#343,#178,.T.);
#419=EDGE_CURVE('',#343,#346,#179,.T.);
#420=EDGE_CURVE('',#347,#346,#180,.T.);
#421=EDGE_CURVE('',#347,#344,#181,.T.);
#422=EDGE_CURVE('',#348,#345,#182,.T.);
#423=EDGE_CURVE('',#346,#348,#183,.T.);
#424=EDGE_CURVE('',#349,#316,#184,.T.);
#425=EDGE_CURVE('',#350,#349,#185,.T.);
#426=EDGE_CURVE('',#330,#350,#186,.T.);
#427=EDGE_CURVE('',#348,#329,#187,.T.);
#428=EDGE_CURVE('',#351,#352,#188,.T.);
#429=EDGE_CURVE('',#352,#314,#189,.T.);
#430=EDGE_CURVE('',#313,#351,#190,.T.);
#431=EDGE_CURVE('',#353,#351,#191,.T.);
#432=EDGE_CURVE('',#312,#353,#192,.T.);
#433=EDGE_CURVE('',#340,#353,#193,.T.);
#434=EDGE_CURVE('',#354,#351,#194,.T.);
#435=EDGE_CURVE('',#355,#354,#195,.T.);
#436=EDGE_CURVE('',#355,#352,#196,.T.);
#437=EDGE_CURVE('',#353,#356,#197,.T.);
#438=EDGE_CURVE('',#354,#356,#198,.T.);
#439=EDGE_CURVE('',#356,#339,#199,.T.);
#440=EDGE_CURVE('',#334,#356,#200,.T.);
#441=EDGE_CURVE('',#333,#354,#201,.T.);
#442=EDGE_CURVE('',#332,#355,#202,.T.);
#443=EDGE_CURVE('',#338,#326,#203,.T.);
#444=EDGE_CURVE('',#308,#323,#204,.T.);
#445=EDGE_CURVE('',#305,#322,#205,.T.);
#446=EDGE_CURVE('',#326,#320,#206,.T.);
#447=EDGE_CURVE('',#328,#346,#207,.T.);
#448=EDGE_CURVE('',#327,#347,#208,.F.);
#449=EDGE_CURVE('',#357,#358,#29,.T.);
#450=EDGE_CURVE('',#358,#357,#30,.T.);
#451=EDGE_CURVE('',#358,#359,#209,.T.);
#452=EDGE_CURVE('',#359,#359,#31,.T.);
#453=EDGE_CURVE('',#360,#361,#32,.T.);
#454=EDGE_CURVE('',#361,#360,#33,.T.);
#455=EDGE_CURVE('',#361,#362,#210,.T.);
#456=EDGE_CURVE('',#362,#362,#34,.T.);
#457=EDGE_CURVE('',#349,#363,#35,.T.);
#458=EDGE_CURVE('',#363,#349,#36,.T.);
#459=EDGE_CURVE('',#363,#364,#211,.T.);
#460=EDGE_CURVE('',#364,#364,#37,.T.);
#461=EDGE_CURVE('',#350,#365,#38,.T.);
#462=EDGE_CURVE('',#365,#350,#39,.T.);
#463=EDGE_CURVE('',#365,#366,#212,.T.);
#464=EDGE_CURVE('',#366,#366,#40,.T.);
#465=EDGE_CURVE('',#357,#315,#213,.T.);
#466=EDGE_CURVE('',#360,#357,#214,.T.);
#467=EDGE_CURVE('',#331,#360,#215,.T.);
#468=EDGE_CURVE('',#342,#367,#216,.T.);
#469=EDGE_CURVE('',#367,#367,#41,.T.);
#470=EDGE_CURVE('',#341,#368,#217,.T.);
#471=EDGE_CURVE('',#368,#368,#42,.T.);
#472=ORIENTED_EDGE('',*,*,#369,.T.);
#473=ORIENTED_EDGE('',*,*,#370,.T.);
#474=ORIENTED_EDGE('',*,*,#371,.T.);
#475=ORIENTED_EDGE('',*,*,#372,.T.);
#476=ORIENTED_EDGE('',*,*,#370,.F.);
#477=ORIENTED_EDGE('',*,*,#373,.F.);
#478=ORIENTED_EDGE('',*,*,#374,.F.);
#479=ORIENTED_EDGE('',*,*,#375,.T.);
#480=ORIENTED_EDGE('',*,*,#376,.F.);
#481=ORIENTED_EDGE('',*,*,#377,.F.);
#482=ORIENTED_EDGE('',*,*,#378,.F.);
#483=ORIENTED_EDGE('',*,*,#379,.T.);
#484=ORIENTED_EDGE('',*,*,#380,.T.);
#485=ORIENTED_EDGE('',*,*,#381,.T.);
#486=ORIENTED_EDGE('',*,*,#382,.F.);
#487=ORIENTED_EDGE('',*,*,#383,.F.);
#488=ORIENTED_EDGE('',*,*,#384,.T.);
#489=ORIENTED_EDGE('',*,*,#369,.F.);
#490=ORIENTED_EDGE('',*,*,#385,.T.);
#491=ORIENTED_EDGE('',*,*,#386,.T.);
#492=ORIENTED_EDGE('',*,*,#373,.T.);
#493=ORIENTED_EDGE('',*,*,#387,.T.);
#494=ORIENTED_EDGE('',*,*,#388,.T.);
#495=ORIENTED_EDGE('',*,*,#389,.T.);
#496=ORIENTED_EDGE('',*,*,#390,.T.);
#497=ORIENTED_EDGE('',*,*,#387,.F.);
#498=ORIENTED_EDGE('',*,*,#391,.T.);
#499=ORIENTED_EDGE('',*,*,#392,.T.);
#500=ORIENTED_EDGE('',*,*,#393,.T.);
#501=ORIENTED_EDGE('',*,*,#390,.F.);
#502=ORIENTED_EDGE('',*,*,#394,.F.);
#503=ORIENTED_EDGE('',*,*,#395,.F.);
#504=ORIENTED_EDGE('',*,*,#396,.F.);
#505=ORIENTED_EDGE('',*,*,#397,.F.);
#506=ORIENTED_EDGE('',*,*,#398,.T.);
#507=ORIENTED_EDGE('',*,*,#399,.T.);
#508=ORIENTED_EDGE('',*,*,#400,.F.);
#509=ORIENTED_EDGE('',*,*,#401,.F.);
#510=ORIENTED_EDGE('',*,*,#402,.F.);
#511=ORIENTED_EDGE('',*,*,#403,.T.);
#512=ORIENTED_EDGE('',*,*,#404,.F.);
#513=ORIENTED_EDGE('',*,*,#391,.F.);
#514=ORIENTED_EDGE('',*,*,#405,.T.);
#515=ORIENTED_EDGE('',*,*,#406,.T.);
#516=ORIENTED_EDGE('',*,*,#374,.T.);
#517=ORIENTED_EDGE('',*,*,#386,.F.);
#518=ORIENTED_EDGE('',*,*,#406,.F.);
#519=ORIENTED_EDGE('',*,*,#407,.F.);
#520=ORIENTED_EDGE('',*,*,#408,.F.);
#521=ORIENTED_EDGE('',*,*,#403,.F.);
#522=ORIENTED_EDGE('',*,*,#409,.F.);
#523=ORIENTED_EDGE('',*,*,#410,.F.);
#524=ORIENTED_EDGE('',*,*,#411,.F.);
#525=ORIENTED_EDGE('',*,*,#375,.F.);
#526=ORIENTED_EDGE('',*,*,#412,.T.);
#527=ORIENTED_EDGE('',*,*,#413,.T.);
#528=ORIENTED_EDGE('',*,*,#414,.T.);
#529=ORIENTED_EDGE('',*,*,#415,.T.);
#530=ORIENTED_EDGE('',*,*,#383,.T.);
#531=ORIENTED_EDGE('',*,*,#416,.T.);
#532=ORIENTED_EDGE('',*,*,#382,.T.);
#533=ORIENTED_EDGE('',*,*,#417,.T.);
#534=ORIENTED_EDGE('',*,*,#418,.T.);
#535=ORIENTED_EDGE('',*,*,#416,.F.);
#536=ORIENTED_EDGE('',*,*,#414,.F.);
#537=ORIENTED_EDGE('',*,*,#419,.T.);
#538=ORIENTED_EDGE('',*,*,#420,.F.);
#539=ORIENTED_EDGE('',*,*,#421,.T.);
#540=ORIENTED_EDGE('',*,*,#418,.F.);
#541=ORIENTED_EDGE('',*,*,#422,.F.);
#542=ORIENTED_EDGE('',*,*,#423,.F.);
#543=ORIENTED_EDGE('',*,*,#419,.F.);
#544=ORIENTED_EDGE('',*,*,#417,.F.);
#545=ORIENTED_EDGE('',*,*,#381,.F.);
#546=ORIENTED_EDGE('',*,*,#424,.F.);
#547=ORIENTED_EDGE('',*,*,#425,.F.);
#548=ORIENTED_EDGE('',*,*,#426,.F.);
#549=ORIENTED_EDGE('',*,*,#397,.T.);
#550=ORIENTED_EDGE('',*,*,#427,.F.);
#551=ORIENTED_EDGE('',*,*,#422,.T.);
#552=ORIENTED_EDGE('',*,*,#428,.T.);
#553=ORIENTED_EDGE('',*,*,#429,.T.);
#554=ORIENTED_EDGE('',*,*,#378,.T.);
#555=ORIENTED_EDGE('',*,*,#430,.T.);
#556=ORIENTED_EDGE('',*,*,#431,.T.);
#557=ORIENTED_EDGE('',*,*,#430,.F.);
#558=ORIENTED_EDGE('',*,*,#377,.T.);
#559=ORIENTED_EDGE('',*,*,#432,.T.);
#560=ORIENTED_EDGE('',*,*,#376,.T.);
#561=ORIENTED_EDGE('',*,*,#411,.T.);
#562=ORIENTED_EDGE('',*,*,#433,.T.);
#563=ORIENTED_EDGE('',*,*,#432,.F.);
#564=ORIENTED_EDGE('',*,*,#428,.F.);
#565=ORIENTED_EDGE('',*,*,#434,.F.);
#566=ORIENTED_EDGE('',*,*,#435,.F.);
#567=ORIENTED_EDGE('',*,*,#436,.T.);
#568=ORIENTED_EDGE('',*,*,#431,.F.);
#569=ORIENTED_EDGE('',*,*,#437,.T.);
#570=ORIENTED_EDGE('',*,*,#438,.F.);
#571=ORIENTED_EDGE('',*,*,#434,.T.);
#572=ORIENTED_EDGE('',*,*,#433,.F.);
#573=ORIENTED_EDGE('',*,*,#410,.T.);
#574=ORIENTED_EDGE('',*,*,#439,.F.);
#575=ORIENTED_EDGE('',*,*,#437,.F.);
#576=ORIENTED_EDGE('',*,*,#439,.T.);
#577=ORIENTED_EDGE('',*,*,#409,.T.);
#578=ORIENTED_EDGE('',*,*,#402,.T.);
#579=ORIENTED_EDGE('',*,*,#440,.T.);
#580=ORIENTED_EDGE('',*,*,#401,.T.);
#581=ORIENTED_EDGE('',*,*,#441,.T.);
#582=ORIENTED_EDGE('',*,*,#438,.T.);
#583=ORIENTED_EDGE('',*,*,#440,.F.);
#584=ORIENTED_EDGE('',*,*,#400,.T.);
#585=ORIENTED_EDGE('',*,*,#442,.T.);
#586=ORIENTED_EDGE('',*,*,#435,.T.);
#587=ORIENTED_EDGE('',*,*,#441,.F.);
#588=ORIENTED_EDGE('',*,*,#404,.T.);
#589=ORIENTED_EDGE('',*,*,#408,.T.);
#590=ORIENTED_EDGE('',*,*,#443,.T.);
#591=ORIENTED_EDGE('',*,*,#392,.F.);
#592=ORIENTED_EDGE('',*,*,#372,.F.);
#593=ORIENTED_EDGE('',*,*,#444,.T.);
#594=ORIENTED_EDGE('',*,*,#388,.F.);
#595=ORIENTED_EDGE('',*,*,#445,.F.);
#596=ORIENTED_EDGE('',*,*,#385,.F.);
#597=ORIENTED_EDGE('',*,*,#445,.T.);
#598=ORIENTED_EDGE('',*,*,#393,.F.);
#599=ORIENTED_EDGE('',*,*,#446,.T.);
#600=ORIENTED_EDGE('',*,*,#423,.T.);
#601=ORIENTED_EDGE('',*,*,#427,.T.);
#602=ORIENTED_EDGE('',*,*,#396,.T.);
#603=ORIENTED_EDGE('',*,*,#447,.T.);
#604=ORIENTED_EDGE('',*,*,#395,.T.);
#605=ORIENTED_EDGE('',*,*,#448,.T.);
#606=ORIENTED_EDGE('',*,*,#420,.T.);
#607=ORIENTED_EDGE('',*,*,#447,.F.);
#608=ORIENTED_EDGE('',*,*,#449,.F.);
#609=ORIENTED_EDGE('',*,*,#450,.F.);
#610=ORIENTED_EDGE('',*,*,#451,.T.);
#611=ORIENTED_EDGE('',*,*,#452,.T.);
#612=ORIENTED_EDGE('',*,*,#451,.F.);
#613=ORIENTED_EDGE('',*,*,#452,.F.);
#614=ORIENTED_EDGE('',*,*,#453,.F.);
#615=ORIENTED_EDGE('',*,*,#454,.F.);
#616=ORIENTED_EDGE('',*,*,#455,.T.);
#617=ORIENTED_EDGE('',*,*,#456,.T.);
#618=ORIENTED_EDGE('',*,*,#455,.F.);
#619=ORIENTED_EDGE('',*,*,#456,.F.);
#620=ORIENTED_EDGE('',*,*,#457,.F.);
#621=ORIENTED_EDGE('',*,*,#458,.F.);
#622=ORIENTED_EDGE('',*,*,#459,.T.);
#623=ORIENTED_EDGE('',*,*,#460,.T.);
#624=ORIENTED_EDGE('',*,*,#459,.F.);
#625=ORIENTED_EDGE('',*,*,#460,.F.);
#626=ORIENTED_EDGE('',*,*,#461,.F.);
#627=ORIENTED_EDGE('',*,*,#462,.F.);
#628=ORIENTED_EDGE('',*,*,#463,.T.);
#629=ORIENTED_EDGE('',*,*,#464,.T.);
#630=ORIENTED_EDGE('',*,*,#463,.F.);
#631=ORIENTED_EDGE('',*,*,#464,.F.);
#632=ORIENTED_EDGE('',*,*,#398,.F.);
#633=ORIENTED_EDGE('',*,*,#426,.T.);
#634=ORIENTED_EDGE('',*,*,#461,.T.);
#635=ORIENTED_EDGE('',*,*,#462,.T.);
#636=ORIENTED_EDGE('',*,*,#425,.T.);
#637=ORIENTED_EDGE('',*,*,#457,.T.);
#638=ORIENTED_EDGE('',*,*,#458,.T.);
#639=ORIENTED_EDGE('',*,*,#424,.T.);
#640=ORIENTED_EDGE('',*,*,#380,.F.);
#641=ORIENTED_EDGE('',*,*,#465,.F.);
#642=ORIENTED_EDGE('',*,*,#449,.T.);
#643=ORIENTED_EDGE('',*,*,#450,.T.);
#644=ORIENTED_EDGE('',*,*,#466,.F.);
#645=ORIENTED_EDGE('',*,*,#453,.T.);
#646=ORIENTED_EDGE('',*,*,#454,.T.);
#647=ORIENTED_EDGE('',*,*,#467,.F.);
#648=ORIENTED_EDGE('',*,*,#413,.F.);
#649=ORIENTED_EDGE('',*,*,#468,.T.);
#650=ORIENTED_EDGE('',*,*,#469,.T.);
#651=ORIENTED_EDGE('',*,*,#468,.F.);
#652=ORIENTED_EDGE('',*,*,#469,.F.);
#653=ORIENTED_EDGE('',*,*,#412,.F.);
#654=ORIENTED_EDGE('',*,*,#470,.T.);
#655=ORIENTED_EDGE('',*,*,#471,.T.);
#656=ORIENTED_EDGE('',*,*,#470,.F.);
#657=ORIENTED_EDGE('',*,*,#471,.F.);
#658=ORIENTED_EDGE('',*,*,#429,.F.);
#659=ORIENTED_EDGE('',*,*,#436,.F.);
#660=ORIENTED_EDGE('',*,*,#442,.F.);
#661=ORIENTED_EDGE('',*,*,#399,.F.);
#662=ORIENTED_EDGE('',*,*,#467,.T.);
#663=ORIENTED_EDGE('',*,*,#466,.T.);
#664=ORIENTED_EDGE('',*,*,#465,.T.);
#665=ORIENTED_EDGE('',*,*,#379,.F.);
#666=ORIENTED_EDGE('',*,*,#371,.F.);
#667=ORIENTED_EDGE('',*,*,#384,.F.);
#668=ORIENTED_EDGE('',*,*,#415,.F.);
#669=ORIENTED_EDGE('',*,*,#421,.F.);
#670=ORIENTED_EDGE('',*,*,#448,.F.);
#671=ORIENTED_EDGE('',*,*,#394,.T.);
#672=ORIENTED_EDGE('',*,*,#389,.F.);
#673=ORIENTED_EDGE('',*,*,#444,.F.);
#674=ORIENTED_EDGE('',*,*,#405,.F.);
#675=ORIENTED_EDGE('',*,*,#446,.F.);
#676=ORIENTED_EDGE('',*,*,#443,.F.);
#677=ORIENTED_EDGE('',*,*,#407,.T.);
#678=PLANE('',#773);
#679=PLANE('',#774);
#680=PLANE('',#775);
#681=PLANE('',#776);
#682=PLANE('',#777);
#683=PLANE('',#778);
#684=PLANE('',#779);
#685=PLANE('',#780);
#686=PLANE('',#783);
#687=PLANE('',#784);
#688=PLANE('',#785);
#689=PLANE('',#786);
#690=PLANE('',#787);
#691=PLANE('',#788);
#692=PLANE('',#789);
#693=PLANE('',#790);
#694=PLANE('',#791);
#695=PLANE('',#792);
#696=PLANE('',#793);
#697=PLANE('',#794);
#698=PLANE('',#795);
#699=PLANE('',#796);
#700=PLANE('',#797);
#701=PLANE('',#798);
#702=PLANE('',#799);
#703=PLANE('',#800);
#704=PLANE('',#801);
#705=PLANE('',#806);
#706=PLANE('',#811);
#707=PLANE('',#816);
#708=PLANE('',#821);
#709=PLANE('',#822);
#710=PLANE('',#825);
#711=PLANE('',#828);
#712=PLANE('',#829);
#713=PLANE('',#830);
#714=PLANE('',#831);
#715=ADVANCED_FACE('',(#43),#678,.T.);
#716=ADVANCED_FACE('',(#44),#679,.T.);
#717=ADVANCED_FACE('',(#45),#680,.T.);
#718=ADVANCED_FACE('',(#46),#681,.T.);
#719=ADVANCED_FACE('',(#47),#682,.T.);
#720=ADVANCED_FACE('',(#48),#683,.T.);
#721=ADVANCED_FACE('',(#49),#684,.T.);
#722=ADVANCED_FACE('',(#50,#25,#26),#685,.F.);
#723=ADVANCED_FACE('',(#51),#686,.T.);
#724=ADVANCED_FACE('',(#52),#687,.T.);
#725=ADVANCED_FACE('',(#53),#688,.T.);
#726=ADVANCED_FACE('',(#54),#689,.T.);
#727=ADVANCED_FACE('',(#55),#690,.T.);
#728=ADVANCED_FACE('',(#56),#691,.T.);
#729=ADVANCED_FACE('',(#57),#692,.T.);
#730=ADVANCED_FACE('',(#58),#693,.T.);
#731=ADVANCED_FACE('',(#59),#694,.T.);
#732=ADVANCED_FACE('',(#60),#695,.T.);
#733=ADVANCED_FACE('',(#61),#696,.T.);
#734=ADVANCED_FACE('',(#62),#697,.T.);
#735=ADVANCED_FACE('',(#63),#698,.T.);
#736=ADVANCED_FACE('',(#64),#699,.T.);
#737=ADVANCED_FACE('',(#65),#700,.T.);
#738=ADVANCED_FACE('',(#66),#701,.T.);
#739=ADVANCED_FACE('',(#67),#702,.T.);
#740=ADVANCED_FACE('',(#68),#703,.T.);
#741=ADVANCED_FACE('',(#69),#704,.T.);
#742=ADVANCED_FACE('',(#70),#19,.F.);
#743=ADVANCED_FACE('',(#71),#705,.T.);
#744=ADVANCED_FACE('',(#72),#20,.F.);
#745=ADVANCED_FACE('',(#73),#706,.T.);
#746=ADVANCED_FACE('',(#74),#21,.F.);
#747=ADVANCED_FACE('',(#75),#707,.T.);
#748=ADVANCED_FACE('',(#76),#22,.F.);
#749=ADVANCED_FACE('',(#77),#708,.T.);
#750=ADVANCED_FACE('',(#78),#709,.T.);
#751=ADVANCED_FACE('',(#79),#23,.F.);
#752=ADVANCED_FACE('',(#80),#710,.T.);
#753=ADVANCED_FACE('',(#81),#24,.F.);
#754=ADVANCED_FACE('',(#82),#711,.T.);
#755=ADVANCED_FACE('',(#83),#712,.T.);
#756=ADVANCED_FACE('',(#84),#713,.T.);
#757=ADVANCED_FACE('',(#85),#714,.T.);
#758=CLOSED_SHELL('',(#715,#716,#717,#718,#719,#720,#721,#722,#723,#724,
#725,#726,#727,#728,#729,#730,#731,#732,#733,#734,#735,#736,#737,#738,#739,
#740,#741,#742,#743,#744,#745,#746,#747,#748,#749,#750,#751,#752,#753,#754,
#755,#756,#757));
#759=DERIVED_UNIT_ELEMENT(#761,1.);
#760=DERIVED_UNIT_ELEMENT(#1264,-3.);
#761=(
MASS_UNIT()
NAMED_UNIT(*)
SI_UNIT(.KILO.,.GRAM.)
);
#762=DERIVED_UNIT((#759,#760));
#763=MEASURE_REPRESENTATION_ITEM('density measure',
POSITIVE_RATIO_MEASURE(7850.),#762);
#764=PROPERTY_DEFINITION_REPRESENTATION(#769,#766);
#765=PROPERTY_DEFINITION_REPRESENTATION(#770,#767);
#766=REPRESENTATION('material name',(#768),#1261);
#767=REPRESENTATION('density',(#763),#1261);
#768=DESCRIPTIVE_REPRESENTATION_ITEM('Steel','Steel');
#769=PROPERTY_DEFINITION('material property','material name',#1276);
#770=PROPERTY_DEFINITION('material property','density of part',#1276);
#771=AXIS2_PLACEMENT_3D('',#1044,#833,#834);
#772=AXIS2_PLACEMENT_3D('',#1045,#835,#836);
#773=AXIS2_PLACEMENT_3D('',#1046,#837,#838);
#774=AXIS2_PLACEMENT_3D('',#1055,#843,#844);
#775=AXIS2_PLACEMENT_3D('',#1079,#857,#858);
#776=AXIS2_PLACEMENT_3D('',#1083,#861,#862);
#777=AXIS2_PLACEMENT_3D('',#1092,#867,#868);
#778=AXIS2_PLACEMENT_3D('',#1098,#872,#873);
#779=AXIS2_PLACEMENT_3D('',#1120,#885,#886);
#780=AXIS2_PLACEMENT_3D('',#1124,#889,#890);
#781=AXIS2_PLACEMENT_3D('',#1134,#896,#897);
#782=AXIS2_PLACEMENT_3D('',#1136,#898,#899);
#783=AXIS2_PLACEMENT_3D('',#1137,#900,#901);
#784=AXIS2_PLACEMENT_3D('',#1143,#905,#906);
#785=AXIS2_PLACEMENT_3D('',#1147,#909,#910);
#786=AXIS2_PLACEMENT_3D('',#1153,#914,#915);
#787=AXIS2_PLACEMENT_3D('',#1157,#918,#919);
#788=AXIS2_PLACEMENT_3D('',#1164,#924,#925);
#789=AXIS2_PLACEMENT_3D('',#1170,#929,#930);
#790=AXIS2_PLACEMENT_3D('',#1174,#933,#934);
#791=AXIS2_PLACEMENT_3D('',#1176,#936,#937);
#792=AXIS2_PLACEMENT_3D('',#1182,#941,#942);
#793=AXIS2_PLACEMENT_3D('',#1186,#945,#946);
#794=AXIS2_PLACEMENT_3D('',#1188,#948,#949);
#795=AXIS2_PLACEMENT_3D('',#1190,#951,#952);
#796=AXIS2_PLACEMENT_3D('',#1192,#954,#955);
#797=AXIS2_PLACEMENT_3D('',#1194,#957,#958);
#798=AXIS2_PLACEMENT_3D('',#1196,#960,#961);
#799=AXIS2_PLACEMENT_3D('',#1199,#964,#965);
#800=AXIS2_PLACEMENT_3D('',#1201,#967,#968);
#801=AXIS2_PLACEMENT_3D('',#1203,#970,#971);
#802=AXIS2_PLACEMENT_3D('',#1205,#973,#974);
#803=AXIS2_PLACEMENT_3D('',#1208,#975,#976);
#804=AXIS2_PLACEMENT_3D('',#1209,#977,#978);
#805=AXIS2_PLACEMENT_3D('',#1212,#980,#981);
#806=AXIS2_PLACEMENT_3D('',#1213,#982,#983);
#807=AXIS2_PLACEMENT_3D('',#1214,#984,#985);
#808=AXIS2_PLACEMENT_3D('',#1217,#986,#987);
#809=AXIS2_PLACEMENT_3D('',#1218,#988,#989);
#810=AXIS2_PLACEMENT_3D('',#1221,#991,#992);
#811=AXIS2_PLACEMENT_3D('',#1222,#993,#994);
#812=AXIS2_PLACEMENT_3D('',#1223,#995,#996);
#813=AXIS2_PLACEMENT_3D('',#1225,#997,#998);
#814=AXIS2_PLACEMENT_3D('',#1226,#999,#1000);
#815=AXIS2_PLACEMENT_3D('',#1229,#1002,#1003);
#816=AXIS2_PLACEMENT_3D('',#1230,#1004,#1005);
#817=AXIS2_PLACEMENT_3D('',#1231,#1006,#1007);
#818=AXIS2_PLACEMENT_3D('',#1233,#1008,#1009);
#819=AXIS2_PLACEMENT_3D('',#1234,#1010,#1011);
#820=AXIS2_PLACEMENT_3D('',#1237,#1013,#1014);
#821=AXIS2_PLACEMENT_3D('',#1238,#1015,#1016);
#822=AXIS2_PLACEMENT_3D('',#1239,#1017,#1018);
#823=AXIS2_PLACEMENT_3D('',#1243,#1022,#1023);
#824=AXIS2_PLACEMENT_3D('',#1246,#1025,#1026);
#825=AXIS2_PLACEMENT_3D('',#1247,#1027,#1028);
#826=AXIS2_PLACEMENT_3D('',#1248,#1029,#1030);
#827=AXIS2_PLACEMENT_3D('',#1251,#1032,#1033);
#828=AXIS2_PLACEMENT_3D('',#1252,#1034,#1035);
#829=AXIS2_PLACEMENT_3D('',#1253,#1036,#1037);
#830=AXIS2_PLACEMENT_3D('',#1254,#1038,#1039);
#831=AXIS2_PLACEMENT_3D('',#1255,#1040,#1041);
#832=AXIS2_PLACEMENT_3D('',#1256,#1042,#1043);
#833=DIRECTION('axis',(0.,0.,1.));
#834=DIRECTION('refdir',(1.,0.,0.));
#835=DIRECTION('axis',(0.,0.,1.));
#836=DIRECTION('refdir',(1.,0.,0.));
#837=DIRECTION('center_axis',(-0.707106781186546,-2.09345661157836E-16,
0.707106781186549));
#838=DIRECTION('ref_axis',(0.707106781186549,0.,0.707106781186546));
#839=DIRECTION('',(-0.678598344545848,-0.281084637714821,-0.678598344545845));
#840=DIRECTION('',(2.96059473233375E-16,-1.,0.));
#841=DIRECTION('',(0.707106781186549,0.,0.707106781186546));
#842=DIRECTION('',(-2.96059473233375E-16,1.,0.));
#843=DIRECTION('center_axis',(-1.,-2.96059473233375E-16,0.));
#844=DIRECTION('ref_axis',(2.96059473233375E-16,-1.,0.));
#845=DIRECTION('',(2.09345661157837E-16,-0.707106781186548,0.707106781186548));
#846=DIRECTION('',(0.,0.,1.));
#847=DIRECTION('',(2.96059473233375E-16,-1.,0.));
#848=DIRECTION('',(0.,0.,-1.));
#849=DIRECTION('',(-1.90303361124737E-16,0.642787609686539,-0.766044443118978));
#850=DIRECTION('',(-2.91561664592938E-16,0.984807753012208,-0.17364817766693));
#851=DIRECTION('',(-2.61682076447297E-15,-0.573576436351043,0.819152044288994));
#852=DIRECTION('',(0.,0.17364817766693,0.984807753012208));
#853=DIRECTION('',(1.30841038223649E-15,0.81915204428899,0.573576436351049));
#854=DIRECTION('',(2.91561664592938E-16,-0.984807753012208,0.173648177666929));
#855=DIRECTION('',(2.26794714303158E-16,-0.766044443118974,-0.642787609686544));
#856=DIRECTION('',(0.,0.,1.));
#857=DIRECTION('center_axis',(-0.707106781186547,0.500000000000001,0.500000000000001));
#858=DIRECTION('ref_axis',(0.577350269189627,0.,0.816496580927725));
#859=DIRECTION('',(-2.09345661157837E-16,0.707106781186548,-0.707106781186548));
#860=DIRECTION('',(-0.678598344545848,-0.678598344545846,-0.281084637714821));
#861=DIRECTION('center_axis',(0.707106781186546,2.09345661157836E-16,0.707106781186549));
#862=DIRECTION('ref_axis',(0.707106781186549,0.,-0.707106781186546));
#863=DIRECTION('',(-0.678598344545848,0.281084637714821,0.678598344545845));
#864=DIRECTION('',(2.96059473233375E-16,-1.,0.));
#865=DIRECTION('',(0.707106781186549,0.,-0.707106781186546));
#866=DIRECTION('',(-2.96059473233375E-16,1.,0.));
#867=DIRECTION('center_axis',(0.707106781186547,0.500000000000001,0.500000000000001));
#868=DIRECTION('ref_axis',(0.577350269189627,0.,-0.816496580927725));
#869=DIRECTION('',(-2.09345661157837E-16,0.707106781186548,-0.707106781186548));
#870=DIRECTION('',(-0.678598344545848,0.678598344545846,0.281084637714821));
#871=DIRECTION('',(2.09345661157837E-16,-0.707106781186548,0.707106781186548));
#872=DIRECTION('center_axis',(1.,2.96059473233375E-16,0.));
#873=DIRECTION('ref_axis',(-2.96059473233375E-16,1.,0.));
#874=DIRECTION('',(0.,0.,1.));
#875=DIRECTION('',(-2.26794714303158E-16,0.766044443118974,0.642787609686544));
#876=DIRECTION('',(-2.91561664592938E-16,0.984807753012208,-0.173648177666929));
#877=DIRECTION('',(1.30841038223649E-15,0.81915204428899,0.573576436351049));
#878=DIRECTION('',(0.,-0.17364817766693,-0.984807753012208));
#879=DIRECTION('',(2.61682076447297E-15,0.573576436351043,-0.819152044288994));
#880=DIRECTION('',(2.91561664592938E-16,-0.984807753012208,0.17364817766693));
#881=DIRECTION('',(1.90303361124737E-16,-0.642787609686539,0.766044443118978));
#882=DIRECTION('',(0.,0.,1.));
#883=DIRECTION('',(-2.96059473233375E-16,1.,0.));
#884=DIRECTION('',(0.,0.,-1.));
#885=DIRECTION('center_axis',(-0.707106781186546,0.707106781186549,0.));
#886=DIRECTION('ref_axis',(0.,0.,1.));
#887=DIRECTION('',(0.,0.,-1.));
#888=DIRECTION('',(-0.707106781186549,-0.707106781186546,0.));
#889=DIRECTION('center_axis',(0.,0.,1.));
#890=DIRECTION('ref_axis',(-1.,0.,0.));
#891=DIRECTION('',(-1.,0.,0.));
#892=DIRECTION('',(-0.707106781186549,0.707106781186546,0.));
#893=DIRECTION('',(0.707106781186549,0.707106781186546,0.));
#894=DIRECTION('',(1.,0.,0.));
#895=DIRECTION('',(0.707106781186549,-0.707106781186546,0.));
#896=DIRECTION('center_axis',(0.,0.,1.));
#897=DIRECTION('ref_axis',(1.,0.,0.));
#898=DIRECTION('center_axis',(0.,0.,1.));
#899=DIRECTION('ref_axis',(1.,0.,0.));
#900=DIRECTION('center_axis',(-0.707106781186543,-0.45451947767205,0.541675220419702));
#901=DIRECTION('ref_axis',(0.608120402411345,0.,0.793844806099444));
#902=DIRECTION('',(-2.26794714303158E-16,0.766044443118974,0.642787609686544));
#903=DIRECTION('',(0.608120402411345,0.,0.793844806099444));
#904=DIRECTION('',(0.671542934237816,-0.191776020763417,0.715717853162414));
#905=DIRECTION('center_axis',(-0.707106781186548,0.122787803968972,0.696364240320018));
#906=DIRECTION('ref_axis',(0.701673843159862,0.,0.712498293208671));
#907=DIRECTION('',(0.577350269189625,0.668834843421917,0.468323199181341));
#908=DIRECTION('',(-2.91561664592938E-16,0.984807753012208,-0.173648177666929));
#909=DIRECTION('center_axis',(3.99900272137144E-17,-0.642787609686544,0.766044443118974));
#910=DIRECTION('ref_axis',(1.,0.,-5.22032730253792E-17));
#911=DIRECTION('',(1.,0.,-5.22032730253792E-17));
#912=DIRECTION('',(2.26794714303158E-16,-0.766044443118974,-0.642787609686544));
#913=DIRECTION('',(-1.,0.,5.22032730253792E-17));
#914=DIRECTION('center_axis',(5.14101880080065E-17,0.173648177666929,0.984807753012208));
#915=DIRECTION('ref_axis',(2.84672570416706E-16,0.984807753012208,-0.173648177666929));
#916=DIRECTION('',(-1.,2.96059473233375E-16,0.));
#917=DIRECTION('',(2.91561664592938E-16,-0.984807753012208,0.173648177666929));
#918=DIRECTION('center_axis',(-1.69812737605168E-16,-0.573576436351049,
0.81915204428899));
#919=DIRECTION('ref_axis',(1.30841038223649E-15,0.81915204428899,0.573576436351049));
#920=DIRECTION('',(-1.,2.96059473233375E-16,0.));
#921=DIRECTION('',(-1.,2.96059473233375E-16,0.));
#922=DIRECTION('',(-1.,2.96059473233375E-16,0.));
#923=DIRECTION('',(0.577350269189627,-0.668834843421917,-0.46832319918134));
#924=DIRECTION('center_axis',(-0.707106781186551,-0.122787803968973,-0.696364240320016));
#925=DIRECTION('ref_axis',(-0.70167384315986,0.,0.712498293208673));
#926=DIRECTION('',(2.91561664592938E-16,-0.984807753012208,0.17364817766693));
#927=DIRECTION('',(-0.577350269189624,-0.468323199181337,0.668834843421922));
#928=DIRECTION('',(0.684791078771734,-0.364369722409331,-0.631106871952756));
#929=DIRECTION('center_axis',(-0.707106781186545,-0.541675220419704,-0.454519477672045));
#930=DIRECTION('ref_axis',(-0.540716203060939,0.,0.841205080671391));
#931=DIRECTION('',(1.90303361124737E-16,-0.642787609686539,0.766044443118978));
#932=DIRECTION('',(0.684791078771739,-0.684791078771739,-0.249243569363941));
#933=DIRECTION('center_axis',(-0.707106781186546,-0.707106781186549,0.));
#934=DIRECTION('ref_axis',(0.,0.,1.));
#935=DIRECTION('',(0.,0.,1.));
#936=DIRECTION('center_axis',(-5.1410188008007E-17,-0.17364817766693,-0.984807753012208));
#937=DIRECTION('ref_axis',(2.84672570416707E-16,-0.984807753012208,0.17364817766693));
#938=DIRECTION('',(-1.,0.,5.22032730253797E-17));
#939=DIRECTION('',(-2.91561664592938E-16,0.984807753012208,-0.17364817766693));
#940=DIRECTION('',(-1.,2.96059473233375E-16,0.));
#941=DIRECTION('center_axis',(-3.35556170857976E-17,-0.766044443118978,
-0.642787609686539));
#942=DIRECTION('ref_axis',(-1.,0.,5.22032730253797E-17));
#943=DIRECTION('',(1.,0.,-5.22032730253797E-17));
#944=DIRECTION('',(-1.90303361124737E-16,0.642787609686539,-0.766044443118978));
#945=DIRECTION('center_axis',(0.,-1.,0.));
#946=DIRECTION('ref_axis',(1.,0.,0.));
#947=DIRECTION('',(0.,0.,-1.));
#948=DIRECTION('center_axis',(0.707106781186546,-0.707106781186549,0.));
#949=DIRECTION('ref_axis',(0.,0.,-1.));
#950=DIRECTION('',(-0.684791078771736,-0.684791078771733,-0.249243569363963));
#951=DIRECTION('center_axis',(0.707106781186553,-0.541675220419698,-0.45451947767204));
#952=DIRECTION('ref_axis',(-0.540716203060931,0.,-0.841205080671396));
#953=DIRECTION('',(-0.684791078771734,-0.364369722409347,-0.631106871952747));
#954=DIRECTION('center_axis',(0.707106781186547,-0.122787803968973,-0.69636424032002));
#955=DIRECTION('ref_axis',(-0.701673843159864,0.,-0.712498293208669));
#956=DIRECTION('',(-0.577350269189628,0.468323199181335,-0.668834843421919));
#957=DIRECTION('center_axis',(0.707106781186546,0.707106781186549,0.));
#958=DIRECTION('ref_axis',(0.,0.,-1.));
#959=DIRECTION('',(0.,0.,1.));
#960=DIRECTION('center_axis',(0.,0.,1.));
#961=DIRECTION('ref_axis',(1.,0.,0.));
#962=DIRECTION('',(1.,0.,0.));
#963=DIRECTION('',(1.,0.,0.));
#964=DIRECTION('center_axis',(0.,0.707106781186548,0.707106781186548));
#965=DIRECTION('ref_axis',(1.,0.,0.));
#966=DIRECTION('',(-1.,0.,0.));
#967=DIRECTION('center_axis',(0.707106781186547,0.122787803968972,0.69636424032002));
#968=DIRECTION('ref_axis',(0.701673843159864,0.,-0.712498293208669));
#969=DIRECTION('',(-0.671542934237818,-0.191776020763411,0.715717853162413));
#970=DIRECTION('center_axis',(0.707106781186543,-0.45451947767205,0.541675220419703));
#971=DIRECTION('ref_axis',(0.608120402411346,0.,-0.793844806099443));
#972=DIRECTION('',(0.608120402411346,0.,-0.793844806099443));
#973=DIRECTION('center_axis',(0.,0.984807753012208,-0.17364817766693));
#974=DIRECTION('ref_axis',(1.,0.,0.));
#975=DIRECTION('center_axis',(2.91561664592938E-16,0.984807753012208,-0.17364817766693));
#976=DIRECTION('ref_axis',(1.,0.,0.));
#977=DIRECTION('center_axis',(2.91561664592938E-16,0.984807753012208,-0.17364817766693));
#978=DIRECTION('ref_axis',(1.,0.,0.));
#979=DIRECTION('',(0.,0.984807753012208,-0.173648177666929));
#980=DIRECTION('center_axis',(0.,0.984807753012208,-0.17364817766693));
#981=DIRECTION('ref_axis',(1.,0.,0.));
#982=DIRECTION('center_axis',(0.,-0.984807753012208,0.17364817766693));
#983=DIRECTION('ref_axis',(1.,0.,0.));
#984=DIRECTION('center_axis',(0.,0.984807753012208,-0.17364817766693));
#985=DIRECTION('ref_axis',(1.,0.,0.));
#986=DIRECTION('center_axis',(2.91561664592938E-16,0.984807753012208,-0.17364817766693));
#987=DIRECTION('ref_axis',(1.,0.,0.));
#988=DIRECTION('center_axis',(2.91561664592938E-16,0.984807753012208,-0.17364817766693));
#989=DIRECTION('ref_axis',(1.,0.,0.));
#990=DIRECTION('',(0.,0.984807753012208,-0.17364817766693));
#991=DIRECTION('center_axis',(0.,0.984807753012208,-0.17364817766693));
#992=DIRECTION('ref_axis',(1.,0.,0.));
#993=DIRECTION('center_axis',(0.,-0.984807753012208,0.17364817766693));
#994=DIRECTION('ref_axis',(1.,0.,0.));
#995=DIRECTION('center_axis',(0.,0.984807753012208,-0.17364817766693));
#996=DIRECTION('ref_axis',(1.,0.,0.));
#997=DIRECTION('center_axis',(2.91561664592938E-16,0.984807753012208,-0.17364817766693));
#998=DIRECTION('ref_axis',(1.,0.,0.));
#999=DIRECTION('center_axis',(2.91561664592938E-16,0.984807753012208,-0.17364817766693));
#1000=DIRECTION('ref_axis',(1.,0.,0.));
#1001=DIRECTION('',(0.,0.984807753012208,-0.17364817766693));
#1002=DIRECTION('center_axis',(0.,0.984807753012208,-0.17364817766693));
#1003=DIRECTION('ref_axis',(1.,0.,0.));
#1004=DIRECTION('center_axis',(0.,-0.984807753012208,0.17364817766693));
#1005=DIRECTION('ref_axis',(1.,0.,0.));
#1006=DIRECTION('center_axis',(0.,0.984807753012208,-0.17364817766693));
#1007=DIRECTION('ref_axis',(1.,0.,0.));
#1008=DIRECTION('center_axis',(2.91561664592938E-16,0.984807753012208,-0.17364817766693));
#1009=DIRECTION('ref_axis',(1.,0.,0.));
#1010=DIRECTION('center_axis',(2.91561664592938E-16,0.984807753012208,-0.17364817766693));
#1011=DIRECTION('ref_axis',(1.,0.,0.));
#1012=DIRECTION('',(0.,0.984807753012208,-0.17364817766693));
#1013=DIRECTION('center_axis',(0.,0.984807753012208,-0.17364817766693));
#1014=DIRECTION('ref_axis',(1.,0.,0.));
#1015=DIRECTION('center_axis',(0.,-0.984807753012208,0.17364817766693));
#1016=DIRECTION('ref_axis',(1.,0.,0.));
#1017=DIRECTION('center_axis',(-2.91561664592938E-16,-0.984807753012208,
0.17364817766693));
#1018=DIRECTION('ref_axis',(0.,0.17364817766693,0.984807753012208));
#1019=DIRECTION('',(-1.,2.96059473233375E-16,0.));
#1020=DIRECTION('',(-1.,2.96059473233375E-16,0.));
#1021=DIRECTION('',(-1.,2.96059473233375E-16,0.));
#1022=DIRECTION('center_axis',(0.,0.,1.));
#1023=DIRECTION('ref_axis',(1.,0.,0.));
#1024=DIRECTION('',(0.,0.,1.));
#1025=DIRECTION('center_axis',(0.,0.,1.));
#1026=DIRECTION('ref_axis',(1.,0.,0.));
#1027=DIRECTION('center_axis',(0.,0.,-1.));
#1028=DIRECTION('ref_axis',(1.,0.,0.));
#1029=DIRECTION('center_axis',(0.,0.,1.));
#1030=DIRECTION('ref_axis',(1.,0.,0.));
#1031=DIRECTION('',(0.,0.,1.));
#1032=DIRECTION('center_axis',(0.,0.,1.));
#1033=DIRECTION('ref_axis',(1.,0.,0.));
#1034=DIRECTION('center_axis',(0.,0.,-1.));
#1035=DIRECTION('ref_axis',(1.,0.,0.));
#1036=DIRECTION('center_axis',(-2.42517722730242E-16,-0.819152044288994,
-0.573576436351043));
#1037=DIRECTION('ref_axis',(-2.61682076447297E-15,-0.573576436351043,0.819152044288994));
#1038=DIRECTION('center_axis',(0.,-1.,0.));
#1039=DIRECTION('ref_axis',(1.,0.,0.));
#1040=DIRECTION('center_axis',(0.,1.,0.));
#1041=DIRECTION('ref_axis',(-1.,0.,0.));
#1042=DIRECTION('',(0.,0.,1.));
#1043=DIRECTION('',(1.,0.,0.));
#1044=CARTESIAN_POINT('',(0.,0.,0.));
#1045=CARTESIAN_POINT('',(0.,0.,0.));
#1046=CARTESIAN_POINT('Origin',(-14.519479430103,66.2803271020153,89.5));
#1047=CARTESIAN_POINT('',(-14.019479430103,60.0303271020153,90.));
#1048=CARTESIAN_POINT('',(-15.019479430103,59.6161135396422,89.));
#1049=CARTESIAN_POINT('',(-17.2558032799757,58.6897978711666,86.7636761501274));
#1050=CARTESIAN_POINT('',(-15.019479430103,55.0303271020153,89.));
#1051=CARTESIAN_POINT('',(-15.019479430103,66.2803271020153,89.));
#1052=CARTESIAN_POINT('',(-14.019479430103,55.0303271020153,90.));
#1053=CARTESIAN_POINT('',(-34.519479430103,55.0303271020153,69.5000000000001));
#1054=CARTESIAN_POINT('',(-14.019479430103,66.2803271020153,90.));
#1055=CARTESIAN_POINT('Origin',(-15.019479430103,70.0303271020153,10.));
#1056=CARTESIAN_POINT('',(-15.019479430103,69.0303271020153,79.5857864376269));
#1057=CARTESIAN_POINT('',(-15.019479430103,84.3232203208288,64.2928932188134));
#1058=CARTESIAN_POINT('',(-15.019479430103,69.0303271020153,10.));
#1059=CARTESIAN_POINT('',(-15.019479430103,69.0303271020153,10.));
#1060=CARTESIAN_POINT('',(-15.019479430103,56.0303271020153,10.));
#1061=CARTESIAN_POINT('',(-15.019479430103,70.0303271020153,10.));
#1062=CARTESIAN_POINT('',(-15.019479430103,56.0303271020153,51.4638200230567));
#1063=CARTESIAN_POINT('',(-15.019479430103,56.0303271020153,10.));
#1064=CARTESIAN_POINT('',(-15.019479430103,45.7143384581312,63.7579365505668));
#1065=CARTESIAN_POINT('',(-15.019479430103,66.5520341762623,38.924537817099));
#1066=CARTESIAN_POINT('',(-15.019479430103,20.4670964285019,68.2097065088671));
#1067=CARTESIAN_POINT('',(-15.019479430103,66.8471170948,60.0316574995826));
#1068=CARTESIAN_POINT('',(-15.019479430103,20.3048645134329,68.441397695003));
#1069=CARTESIAN_POINT('',(-15.019479430103,20.3048645134329,68.441397695003));
#1070=CARTESIAN_POINT('',(-15.019479430103,24.4724207774392,92.076783767296));
#1071=CARTESIAN_POINT('',(-15.019479430103,24.4724207774392,92.076783767296));
#1072=CARTESIAN_POINT('',(-15.019479430103,24.704111963575,92.239015682365));
#1073=CARTESIAN_POINT('',(-15.019479430103,24.4724207774392,92.076783767296));
#1074=CARTESIAN_POINT('',(-15.019479430103,53.2576541175929,87.2042558058152));
#1075=CARTESIAN_POINT('',(-15.019479430103,54.208097080789,87.0366670677792));
#1076=CARTESIAN_POINT('',(-15.019479430103,55.0303271020153,88.691705053242));
#1077=CARTESIAN_POINT('',(-15.019479430103,39.864289213615,75.9658882546644));
#1078=CARTESIAN_POINT('',(-15.019479430103,55.0303271020153,10.));
#1079=CARTESIAN_POINT('Origin',(-14.519479430103,84.676773711422,64.6464466094067));
#1080=CARTESIAN_POINT('',(-14.019479430103,70.0303271020153,80.));
#1081=CARTESIAN_POINT('',(-14.019479430103,85.0303271020153,65.));
#1082=CARTESIAN_POINT('',(-14.019479430103,70.0303271020153,80.));
#1083=CARTESIAN_POINT('Origin',(14.480520569897,58.7803271020153,89.5));
#1084=CARTESIAN_POINT('',(14.980520569897,59.6161135396422,89.));
#1085=CARTESIAN_POINT('',(13.980520569897,60.0303271020153,90.));
#1086=CARTESIAN_POINT('',(17.4263475377782,58.603018838328,86.5541730321188));
#1087=CARTESIAN_POINT('',(13.980520569897,55.0303271020153,90.));
#1088=CARTESIAN_POINT('',(13.980520569897,58.7803271020153,90.));
#1089=CARTESIAN_POINT('',(14.980520569897,55.0303271020153,89.));
#1090=CARTESIAN_POINT('',(26.9805205698969,55.0303271020153,77.0000000000001));
#1091=CARTESIAN_POINT('',(14.980520569897,58.7803271020153,89.));
#1092=CARTESIAN_POINT('Origin',(14.480520569897,80.926773711422,68.3964466094067));
#1093=CARTESIAN_POINT('',(14.980520569897,69.0303271020153,79.5857864376269));
#1094=CARTESIAN_POINT('',(14.980520569897,80.5732203208288,68.0428932188134));
#1095=CARTESIAN_POINT('',(13.980520569897,70.0303271020153,80.));
#1096=CARTESIAN_POINT('',(14.980520569897,69.0303271020153,79.5857864376269));
#1097=CARTESIAN_POINT('',(13.980520569897,81.2803271020153,68.75));
#1098=CARTESIAN_POINT('Origin',(14.980520569897,55.0303271020153,10.));
#1099=CARTESIAN_POINT('',(14.980520569897,55.0303271020153,88.691705053242));
#1100=CARTESIAN_POINT('',(14.980520569897,55.0303271020153,10.));
#1101=CARTESIAN_POINT('',(14.980520569897,53.2576541175929,87.2042558058152));
#1102=CARTESIAN_POINT('',(14.980520569897,35.463108547364,72.2728591808686));
#1103=CARTESIAN_POINT('',(14.980520569897,24.704111963575,92.239015682365));
#1104=CARTESIAN_POINT('',(14.980520569897,46.9342497528418,88.3192426052505));
#1105=CARTESIAN_POINT('',(14.980520569897,24.4724207774392,92.076783767296));
#1106=CARTESIAN_POINT('',(14.980520569897,24.4724207774392,92.076783767296));
#1107=CARTESIAN_POINT('',(14.980520569897,20.3048645134329,68.441397695003));
#1108=CARTESIAN_POINT('',(14.980520569897,24.4724207774392,92.076783767296));
#1109=CARTESIAN_POINT('',(14.980520569897,20.4670964285019,68.2097065088671));
#1110=CARTESIAN_POINT('',(14.980520569897,20.3048645134329,68.441397695003));
#1111=CARTESIAN_POINT('',(14.980520569897,45.7143384581312,63.7579365505667));
#1112=CARTESIAN_POINT('',(14.980520569897,59.5732697668528,61.3142330370538));
#1113=CARTESIAN_POINT('',(14.980520569897,56.0303271020153,51.4638200230568));
#1114=CARTESIAN_POINT('',(14.980520569897,63.4532148425133,42.6175668908948));
#1115=CARTESIAN_POINT('',(14.980520569897,56.0303271020153,10.));
#1116=CARTESIAN_POINT('',(14.980520569897,56.0303271020153,10.));
#1117=CARTESIAN_POINT('',(14.980520569897,69.0303271020153,10.));
#1118=CARTESIAN_POINT('',(14.980520569897,55.0303271020153,10.));
#1119=CARTESIAN_POINT('',(14.980520569897,69.0303271020153,10.));
#1120=CARTESIAN_POINT('Origin',(-14.519479430103,69.5303271020153,10.));
#1121=CARTESIAN_POINT('',(-14.019479430103,70.0303271020153,10.));
#1122=CARTESIAN_POINT('',(-14.019479430103,70.0303271020153,10.));
#1123=CARTESIAN_POINT('',(-12.644479430103,71.4053271020153,10.));
#1124=CARTESIAN_POINT('Origin',(-0.0194794301030399,62.5303271020153,10.));
#1125=CARTESIAN_POINT('',(13.980520569897,70.0303271020153,10.));
#1126=CARTESIAN_POINT('',(14.980520569897,70.0303271020153,10.));
#1127=CARTESIAN_POINT('',(12.6055205698969,71.4053271020153,10.));
#1128=CARTESIAN_POINT('',(13.980520569897,55.0303271020153,10.));
#1129=CARTESIAN_POINT('',(12.6055205698969,53.6553271020153,10.));
#1130=CARTESIAN_POINT('',(-14.019479430103,55.0303271020153,10.));
#1131=CARTESIAN_POINT('',(-15.019479430103,55.0303271020153,10.));
#1132=CARTESIAN_POINT('',(-12.644479430103,53.6553271020153,10.));
#1133=CARTESIAN_POINT('',(-9.51947943010304,62.5303271020153,10.));
#1134=CARTESIAN_POINT('Origin',(-7.51947943010304,62.5303271020153,10.));
#1135=CARTESIAN_POINT('',(5.48052056989696,62.5303271020153,10.));
#1136=CARTESIAN_POINT('Origin',(7.48052056989696,62.5303271020153,10.));
#1137=CARTESIAN_POINT('Origin',(-14.519479430103,39.5428954087717,76.3489104762239));
#1138=CARTESIAN_POINT('',(-14.019479430103,52.9720788982198,88.2700370338981));
#1139=CARTESIAN_POINT('',(-14.019479430103,55.0303271020153,89.9971123425743));
#1140=CARTESIAN_POINT('',(-14.019479430103,39.2215016039284,76.7319326977834));
#1141=CARTESIAN_POINT('',(-36.9006258716443,55.0303271020153,60.1278969895071));
#1142=CARTESIAN_POINT('',(-15.019479430103,53.2576541175929,87.2042558058152));
#1143=CARTESIAN_POINT('Origin',(-14.519479430103,54.2949211696224,87.5290709442853));
#1144=CARTESIAN_POINT('',(-14.019479430103,25.8625678942541,93.0501752577103));
#1145=CARTESIAN_POINT('',(-4.92629082265305,36.3966261653385,100.426202267064));
#1146=CARTESIAN_POINT('',(-14.019479430103,54.3817452584559,88.0214748207914));
#1147=CARTESIAN_POINT('Origin',(-0.0194794301030368,54.0012030001176,89.1335746882362));
#1148=CARTESIAN_POINT('',(13.980520569897,52.9720788982198,88.2700370338981));
#1149=CARTESIAN_POINT('',(-0.0194794301030369,52.9720788982198,88.2700370338981));
#1150=CARTESIAN_POINT('',(13.980520569897,55.0303271020153,89.9971123425743));
#1151=CARTESIAN_POINT('',(13.980520569897,34.8203209376775,73.0389036239876));
#1152=CARTESIAN_POINT('',(-0.0194794301030368,55.0303271020153,89.9971123425743));
#1153=CARTESIAN_POINT('Origin',(14.980520569897,25.8625678942541,93.0501752577103));
#1154=CARTESIAN_POINT('',(13.980520569897,25.8625678942541,93.0501752577103));
#1155=CARTESIAN_POINT('',(14.980520569897,25.8625678942541,93.0501752577103));
#1156=CARTESIAN_POINT('',(13.980520569897,47.1078979305087,89.3040503582627));
#1157=CARTESIAN_POINT('Origin',(14.980520569897,24.4724207774392,92.076783767296));
#1158=CARTESIAN_POINT('',(-9.99482402646344,24.4724207774392,92.076783767296));
#1159=CARTESIAN_POINT('',(14.980520569897,24.4724207774392,92.076783767296));
#1160=CARTESIAN_POINT('',(10.0051759735366,24.4724207774392,92.076783767296));
#1161=CARTESIAN_POINT('',(14.980520569897,24.4724207774392,92.076783767296));
#1162=CARTESIAN_POINT('',(14.980520569897,24.4724207774392,92.076783767296));
#1163=CARTESIAN_POINT('',(11.1183416537122,29.1782760343731,95.3718590919249));
#1164=CARTESIAN_POINT('Origin',(-14.519479430103,66.7602930059665,59.5392536230765));
#1165=CARTESIAN_POINT('',(-14.019479430103,45.1822495718932,62.8363315654599));
#1166=CARTESIAN_POINT('',(-14.019479430103,21.2782560038472,67.051250578188));
#1167=CARTESIAN_POINT('',(-14.0194794301031,66.6734689171331,59.0468497465704));
#1168=CARTESIAN_POINT('',(-1.67022822270814,31.2954693690698,52.7451872775347));
#1169=CARTESIAN_POINT('',(-15.019479430103,45.7143384581312,63.7579365505668));
#1170=CARTESIAN_POINT('Origin',(-14.519479430103,66.1690119547028,38.6031440122557));
#1171=CARTESIAN_POINT('',(-14.019479430103,55.0303271020153,51.0998497887906));
#1172=CARTESIAN_POINT('',(-14.019479430103,65.7859897331433,38.2817502074124));
#1173=CARTESIAN_POINT('',(-15.019479430103,56.0303271020153,51.4638200230567));
#1174=CARTESIAN_POINT('Origin',(-14.519479430103,55.5303271020153,10.));
#1175=CARTESIAN_POINT('',(-14.019479430103,55.0303271020153,10.));
#1176=CARTESIAN_POINT('Origin',(14.980520569897,55.0303271020153,61.0998497887906));
#1177=CARTESIAN_POINT('',(13.980520569897,45.1822495718932,62.8363315654599));
#1178=CARTESIAN_POINT('',(-0.0194794301030404,45.1822495718932,62.8363315654599));
#1179=CARTESIAN_POINT('',(13.980520569897,21.2782560038472,67.051250578188));
#1180=CARTESIAN_POINT('',(13.9805205698969,59.3996215891859,60.3294252840416));
#1181=CARTESIAN_POINT('',(14.980520569897,21.2782560038472,67.051250578188));
#1182=CARTESIAN_POINT('Origin',(-0.0194794301030407,50.1062883369543,56.9680906771252));
#1183=CARTESIAN_POINT('',(13.980520569897,55.0303271020153,51.0998497887906));
#1184=CARTESIAN_POINT('',(-0.019479430103041,55.0303271020153,51.0998497887906));
#1185=CARTESIAN_POINT('',(13.980520569897,62.6871703993943,41.9747792812082));
#1186=CARTESIAN_POINT('Origin',(-15.019479430103,55.0303271020153,10.));
#1187=CARTESIAN_POINT('',(13.980520569897,55.0303271020153,10.));
#1188=CARTESIAN_POINT('Origin',(14.480520569897,55.5303271020153,10.));
#1189=CARTESIAN_POINT('',(14.980520569897,56.0303271020153,51.4638200230568));
#1190=CARTESIAN_POINT('Origin',(14.480520569897,63.0701926209538,42.2961730860515));
#1191=CARTESIAN_POINT('',(14.980520569897,45.7143384581312,63.7579365505667));
#1192=CARTESIAN_POINT('Origin',(14.480520569897,59.4864456780194,60.8218291605477));
#1193=CARTESIAN_POINT('',(7.86227905376725,26.2411261939308,59.9635374085002));
#1194=CARTESIAN_POINT('Origin',(14.480520569897,69.5303271020153,10.));
#1195=CARTESIAN_POINT('',(13.980520569897,70.0303271020153,10.));
#1196=CARTESIAN_POINT('Origin',(-0.0194794301030399,62.5303271020153,90.));
#1197=CARTESIAN_POINT('',(-15.019479430103,55.0303271020153,90.));
#1198=CARTESIAN_POINT('',(7.48052056989696,60.0303271020153,90.));
#1199=CARTESIAN_POINT('Origin',(7.48052056989696,65.0303271020153,85.));
#1200=CARTESIAN_POINT('',(7.48052056989696,70.0303271020153,80.));
#1201=CARTESIAN_POINT('Origin',(14.480520569897,47.0210738416753,88.8116464817566));
#1202=CARTESIAN_POINT('',(14.980520569897,53.2576541175929,87.2042558058152));
#1203=CARTESIAN_POINT('Origin',(14.480520569897,35.1417147425207,72.6558814024281));
#1204=CARTESIAN_POINT('',(32.2059214978923,55.0303271020153,66.205541120166));
#1205=CARTESIAN_POINT('Origin',(-9.99482402646342,20.6521608687667,70.4110132010273));
#1206=CARTESIAN_POINT('',(-9.99482402646342,20.3048645134329,68.4413976950029));
#1207=CARTESIAN_POINT('',(-11.9948240264634,20.6521608687667,70.4110132010273));
#1208=CARTESIAN_POINT('Origin',(-9.99482402646342,20.6521608687667,70.4110132010273));
#1209=CARTESIAN_POINT('Origin',(-9.99482402646342,20.6521608687667,70.4110132010273));
#1210=CARTESIAN_POINT('',(-11.9948240264634,35.4242771639499,67.8062905360234));
#1211=CARTESIAN_POINT('',(-11.9948240264634,20.6521608687667,70.4110132010273));
#1212=CARTESIAN_POINT('Origin',(-9.99482402646342,35.4242771639499,67.8062905360234));
#1213=CARTESIAN_POINT('Origin',(-9.99482402646342,35.4242771639499,67.8062905360234));
#1214=CARTESIAN_POINT('Origin',(10.12121123553,20.6521608687667,70.4110132010274));
#1215=CARTESIAN_POINT('',(10.12121123553,20.3048645134329,68.4413976950029));
#1216=CARTESIAN_POINT('',(8.12121123553005,20.6521608687667,70.4110132010274));
#1217=CARTESIAN_POINT('Origin',(10.12121123553,20.6521608687667,70.4110132010274));
#1218=CARTESIAN_POINT('Origin',(10.12121123553,20.6521608687667,70.4110132010274));
#1219=CARTESIAN_POINT('',(8.12121123553005,35.4242771639499,67.8062905360234));
#1220=CARTESIAN_POINT('',(8.12121123553005,20.6521608687667,70.4110132010274));
#1221=CARTESIAN_POINT('Origin',(10.12121123553,35.4242771639499,67.8062905360234));
#1222=CARTESIAN_POINT('Origin',(10.12121123553,35.4242771639499,67.8062905360234));
#1223=CARTESIAN_POINT('Origin',(-9.99482402646344,24.1251244221053,90.1071682612715));
#1224=CARTESIAN_POINT('',(-11.9948240264634,24.1251244221053,90.1071682612715));
#1225=CARTESIAN_POINT('Origin',(-9.99482402646344,24.1251244221053,90.1071682612715));
#1226=CARTESIAN_POINT('Origin',(-9.99482402646344,24.1251244221053,90.1071682612715));
#1227=CARTESIAN_POINT('',(-11.9948240264634,38.8972407172884,87.5024455962676));
#1228=CARTESIAN_POINT('',(-11.9948240264634,24.1251244221053,90.1071682612715));
#1229=CARTESIAN_POINT('Origin',(-9.99482402646344,38.8972407172884,87.5024455962676));
#1230=CARTESIAN_POINT('Origin',(-9.99482402646344,38.8972407172884,87.5024455962676));
#1231=CARTESIAN_POINT('Origin',(10.0051759735366,24.1251244221053,90.1071682612715));
#1232=CARTESIAN_POINT('',(8.00517597353656,24.1251244221053,90.1071682612715));
#1233=CARTESIAN_POINT('Origin',(10.0051759735366,24.1251244221053,90.1071682612715));
#1234=CARTESIAN_POINT('Origin',(10.0051759735366,24.1251244221053,90.1071682612715));
#1235=CARTESIAN_POINT('',(8.00517597353656,38.8972407172884,87.5024455962676));
#1236=CARTESIAN_POINT('',(8.00517597353656,24.1251244221053,90.1071682612715));
#1237=CARTESIAN_POINT('Origin',(10.0051759735366,38.8972407172884,87.5024455962676));
#1238=CARTESIAN_POINT('Origin',(10.0051759735366,38.8972407172884,87.5024455962676));
#1239=CARTESIAN_POINT('Origin',(14.980520569897,20.3048645134329,68.441397695003));
#1240=CARTESIAN_POINT('',(14.980520569897,20.3048645134329,68.441397695003));
#1241=CARTESIAN_POINT('',(14.980520569897,20.3048645134329,68.441397695003));
#1242=CARTESIAN_POINT('',(14.980520569897,20.3048645134329,68.441397695003));
#1243=CARTESIAN_POINT('Origin',(7.48052056989696,62.5303271020153,10.));
#1244=CARTESIAN_POINT('',(5.48052056989696,62.5303271020153,25.));
#1245=CARTESIAN_POINT('',(5.48052056989696,62.5303271020153,10.));
#1246=CARTESIAN_POINT('Origin',(7.48052056989696,62.5303271020153,25.));
#1247=CARTESIAN_POINT('Origin',(7.48052056989696,62.5303271020153,25.));
#1248=CARTESIAN_POINT('Origin',(-7.51947943010304,62.5303271020153,10.));
#1249=CARTESIAN_POINT('',(-9.51947943010304,62.5303271020153,25.));
#1250=CARTESIAN_POINT('',(-9.51947943010304,62.5303271020153,10.));
#1251=CARTESIAN_POINT('Origin',(-7.51947943010304,62.5303271020153,25.));
#1252=CARTESIAN_POINT('Origin',(-7.51947943010304,62.5303271020153,25.));
#1253=CARTESIAN_POINT('Origin',(14.980520569897,21.2782560038472,67.051250578188));
#1254=CARTESIAN_POINT('Origin',(-15.019479430103,55.0303271020153,10.));
#1255=CARTESIAN_POINT('Origin',(14.980520569897,70.0303271020153,10.));
#1256=CARTESIAN_POINT('',(0.,0.,0.));
#1257=UNCERTAINTY_MEASURE_WITH_UNIT(LENGTH_MEASURE(0.01),#1263,
'DISTANCE_ACCURACY_VALUE',
'Maximum model space distance between geometric entities at asserted c
onnectivities');
#1258=UNCERTAINTY_MEASURE_WITH_UNIT(LENGTH_MEASURE(0.01),#1263,
'DISTANCE_ACCURACY_VALUE',
'Maximum model space distance between geometric entities at asserted c
onnectivities');
#1259=UNCERTAINTY_MEASURE_WITH_UNIT(LENGTH_MEASURE(0.01),#1263,
'DISTANCE_ACCURACY_VALUE',
'Maximum model space distance between geometric entities at asserted c
onnectivities');
#1260=(
GEOMETRIC_REPRESENTATION_CONTEXT(3)
GLOBAL_UNCERTAINTY_ASSIGNED_CONTEXT((#1257))
GLOBAL_UNIT_ASSIGNED_CONTEXT((#1263,#1265,#1266))
REPRESENTATION_CONTEXT('','3D')
);
#1261=(
GEOMETRIC_REPRESENTATION_CONTEXT(3)
GLOBAL_UNCERTAINTY_ASSIGNED_CONTEXT((#1258))
GLOBAL_UNIT_ASSIGNED_CONTEXT((#1263,#1265,#1266))
REPRESENTATION_CONTEXT('','3D')
);
#1262=(
GEOMETRIC_REPRESENTATION_CONTEXT(3)
GLOBAL_UNCERTAINTY_ASSIGNED_CONTEXT((#1259))
GLOBAL_UNIT_ASSIGNED_CONTEXT((#1263,#1265,#1266))
REPRESENTATION_CONTEXT('','3D')
);
#1263=(
LENGTH_UNIT()
NAMED_UNIT(*)
SI_UNIT(.MILLI.,.METRE.)
);
#1264=(
LENGTH_UNIT()
NAMED_UNIT(*)
SI_UNIT($,.METRE.)
);
#1265=(
NAMED_UNIT(*)
PLANE_ANGLE_UNIT()
SI_UNIT($,.RADIAN.)
);
#1266=(
NAMED_UNIT(*)
SI_UNIT($,.STERADIAN.)
SOLID_ANGLE_UNIT()
);
#1267=SHAPE_DEFINITION_REPRESENTATION(#1269,#1272);
#1268=SHAPE_DEFINITION_REPRESENTATION(#1270,#1273);
#1269=PRODUCT_DEFINITION_SHAPE('',$,#1275);
#1270=PRODUCT_DEFINITION_SHAPE('',$,#1276);
#1271=PRODUCT_DEFINITION_SHAPE($,$,#14);
#1272=SHAPE_REPRESENTATION('',(#771,#832),#1260);
#1273=SHAPE_REPRESENTATION('',(#772),#1261);
#1274=PRODUCT_DEFINITION_CONTEXT('part definition',#1282,'design');
#1275=PRODUCT_DEFINITION('JabberStand','JabberStand v5',#1277,#1274);
#1276=PRODUCT_DEFINITION('Pillar','Pillar v4',#1278,#1274);
#1277=PRODUCT_DEFINITION_FORMATION('',$,#1284);
#1278=PRODUCT_DEFINITION_FORMATION('',$,#1285);
#1279=PRODUCT_RELATED_PRODUCT_CATEGORY('JabberStand v5',
'JabberStand v5',(#1284));
#1280=PRODUCT_RELATED_PRODUCT_CATEGORY('Pillar v4','Pillar v4',(#1285));
#1281=APPLICATION_PROTOCOL_DEFINITION('international standard',
'automotive_design',2009,#1282);
#1282=APPLICATION_CONTEXT(
'Core Data for Automotive Mechanical Design Process');
#1283=PRODUCT_CONTEXT('part definition',#1282,'mechanical');
#1284=PRODUCT('JabberStand','JabberStand v5',$,(#1283));
#1285=PRODUCT('Pillar','Pillar v4',$,(#1283));
#1286=PRESENTATION_STYLE_ASSIGNMENT((#1288));
#1287=PRESENTATION_STYLE_ASSIGNMENT((#1289));
#1288=SURFACE_STYLE_USAGE(.BOTH.,#1290);
#1289=SURFACE_STYLE_USAGE(.BOTH.,#1291);
#1290=SURFACE_SIDE_STYLE('',(#1292));
#1291=SURFACE_SIDE_STYLE('',(#1293));
#1292=SURFACE_STYLE_FILL_AREA(#1294);
#1293=SURFACE_STYLE_FILL_AREA(#1295);
#1294=FILL_AREA_STYLE('Steel - Satin',(#1296));
#1295=FILL_AREA_STYLE('Paint - Enamel Glossy (Black)',(#1297));
#1296=FILL_AREA_STYLE_COLOUR('Steel - Satin',#1298);
#1297=FILL_AREA_STYLE_COLOUR('Paint - Enamel Glossy (Black)',#1299);
#1298=COLOUR_RGB('Steel - Satin',0.627450980392157,0.627450980392157,0.627450980392157);
#1299=COLOUR_RGB('Paint - Enamel Glossy (Black)',0.0980392156862745,0.0980392156862745,
0.0980392156862745);
ENDSEC;
END-ISO-10303-21;
